<svg xmlns="http://www.w3.org/2000/svg" viewBox="0 0 24 24" fill="currentColor" width="24px" height="24px">
  <path d="M0 0h24v24H0z" fill="none"/>
  <path d="M12 2C6.48 2 2 6.48 2 12s4.48 10 10 10 10-4.48 10-10S17.52 2 12 2zm-1 17.93c-3.95-.49-7-3.85-7-7.93 0-.62.08-1.21.21-1.79L9 12v5H7v-2.22c-.82-.49-1.5-1.17-1.95-2H3.22c.45-.82 1.13-1.5 1.95-1.95V8h2.05L9 10.22V12h3V9.78L14.95 8H17v2.05c.82.45 1.5 1.13 1.95 1.95h1.83c-.45.82-1.13 1.5-1.95 1.95V15h-2v-3l-4.79-1.79c-.13.58-.21 1.17-.21 1.79 0 4.08 3.05 7.44 7 7.93V20H6.07C6.02 19.31 6 18.62 6 18c0-1.68.41-3.25 1.12-4.64L12 11l4.88 2.36C17.59 14.75 18 16.32 18 18c0 .62-.02 1.31-.07 2H13v-2.07z"/>
</svg>
